<?xml version="1.0" encoding="UTF-8" standalone="no"?>
<svg xmlns:dc="http://purl.org/dc/elements/1.1/" xmlns:cc="http://creativecommons.org/ns#" xmlns:rdf="http://www.w3.org/1999/02/22-rdf-syntax-ns#" xmlns:svg="http://www.w3.org/2000/svg" xmlns="http://www.w3.org/2000/svg" xmlns:xlink="http://www.w3.org/1999/xlink" xmlns:sodipodi="http://sodipodi.sourceforge.net/DTD/sodipodi-0.dtd" xmlns:inkscape="http://www.inkscape.org/namespaces/inkscape" width="512" height="512" id="svg2" version="1.1" inkscape:version="0.91 r13725" sodipodi:docname="egypt_egyptian_national_country_flag.svg">
  <defs id="defs4"/>
  <sodipodi:namedview id="base" pagecolor="#ffffff" bordercolor="#666666" borderopacity="1.0" inkscape:pageopacity="0.0" inkscape:pageshadow="2" inkscape:zoom="0.9899495" inkscape:cx="297.6795" inkscape:cy="248.96859" inkscape:document-units="px" inkscape:current-layer="layer1" showgrid="false" inkscape:window-width="1366" inkscape:window-height="716" inkscape:window-x="-8" inkscape:window-y="-8" inkscape:window-maximized="1"/>
  
  <g inkscape:label="Layer 1" inkscape:groupmode="layer" id="layer1" transform="translate(0,-540.36218)">
    <g id="g3802">
      <g transform="matrix(0.96,0,0,0.96,10.24,31.854487)" id="g3775">
        <g id="g3753" transform="translate(0,10.000005)">
          <path style="fill:#e32d3c;fill-opacity:1;stroke:none" d="M 256 16 A 240 240 0 0 0 30.03125 176 L 482.00391 176 A 240 240 0 0 0 256 16 z " transform="matrix(1.0416667,0,0,1.0416667,-10.666667,519.69551)" id="rect2985"/>
          <path style="fill:#ffffff;fill-opacity:1;stroke:none" d="M 30.03125 176 A 240 240 0 0 0 16 256 A 240 240 0 0 0 29.996094 336 L 481.96875 336 A 240 240 0 0 0 496 256 A 240 240 0 0 0 482.00391 176 L 30.03125 176 z " transform="matrix(1.0416667,0,0,1.0416667,-10.666667,519.69551)" id="rect2987"/>
          <path style="fill:#222222;fill-opacity:1;stroke:none" d="M 29.996094 336 A 240 240 0 0 0 256 496 A 240 240 0 0 0 481.96875 336 L 29.996094 336 z " transform="matrix(1.0416667,0,0,1.0416667,-10.666667,519.69551)" id="rect2989"/>
        </g>
      </g>
      <g transform="translate(997.58648,91.225763)" id="g3798"/>
    </g>
    <g transform="matrix(0.78766073,0,0,0.78766073,-98.451346,560.01149)" id="g3121">
      <g style="fill:#ffffff;stroke:#c09300;stroke-width:1.240924" id="g10">
        <path style="color:#000000;font-style:normal;font-variant:normal;font-weight:normal;font-stretch:normal;font-size:medium;line-height:normal;font-family:sans-serif;text-indent:0;text-align:start;text-decoration:none;text-decoration-line:none;text-decoration-style:solid;text-decoration-color:#000000;letter-spacing:normal;word-spacing:normal;text-transform:none;direction:ltr;block-progression:tb;writing-mode:lr-tb;baseline-shift:baseline;text-anchor:start;white-space:normal;clip-rule:nonzero;display:inline;overflow:visible;visibility:visible;opacity:1;isolation:auto;mix-blend-mode:normal;color-interpolation:sRGB;color-interpolation-filters:linearRGB;solid-color:#000000;solid-opacity:1;fill:#c09300;fill-opacity:1;fill-rule:nonzero;stroke:none;stroke-width:1.57634568;stroke-linecap:butt;stroke-linejoin:round;stroke-miterlimit:4;stroke-dasharray:none;stroke-dashoffset:0;stroke-opacity:1;color-rendering:auto;image-rendering:auto;shape-rendering:auto;text-rendering:auto;enable-background:accumulate" d="m 395.14453,237.20703 c -2.78787,0.20866 -5.34059,1.23755 -7.18945,3.39844 -1.84887,2.16089 -2.96812,5.38093 -3.15235,9.87109 l -4.8789,115.46875 a 0.78825166,0.78825166 0 0 0 1.31836,0.61719 l 69.56054,-63.0918 67.95899,63.08594 a 0.78825166,0.78825166 0 0 0 1.32422,-0.61133 l -4.87696,-115.46875 c -0.1838,-4.4901 -1.30157,-7.71017 -3.15039,-9.87109 -1.84881,-2.16092 -4.40142,-3.18974 -7.18945,-3.39844 -5.57606,-0.4174 -12.21232,2.24738 -17.80859,5.44531 a 0.78825166,0.78825166 0 0 0 -0.0352,0.0215 c -10.96172,7.02535 -23.41844,7.03927 -36.75977,2.35547 a 0.78825166,0.78825166 0 0 0 -0.52148,0 c -13.33826,4.68377 -25.79611,4.66987 -36.75781,-2.35547 a 0.78825166,0.78825166 0 0 0 -0.0332,-0.0215 c -5.59575,-3.19772 -12.23285,-5.86262 -17.80859,-5.44531 z m 0.11719,1.57227 c 4.96826,-0.37184 11.45796,2.12761 16.9082,5.24218 L 412.13672,244 c 11.34687,7.2722 24.33216,7.28092 37.86914,2.58594 13.5392,4.69432 26.52474,4.68592 37.87109,-2.58594 l -0.0352,0.0215 c 5.45072,-3.11476 11.94155,-5.61411 16.91015,-5.24218 2.4843,0.18596 4.55811,1.04069 6.10743,2.85156 1.54931,1.81087 2.601,4.65025 2.77539,8.91016 a 0.78825166,0.78825166 0 0 0 0,0.002 l 4.79492,113.55273 -67.05078,-62.24218 a 0.78825166,0.78825166 0 0 0 -0.0332,-0.0312 0.78825166,0.78825166 0 0 0 -0.53515,-0.21094 0.78825166,0.78825166 0 0 0 -0.5293,0.20508 0.78825166,0.78825166 0 0 0 -0.0371,0.0351 l -68.66406,62.27735 4.79883,-113.58594 a 0.78825166,0.78825166 0 0 0 0,-0.002 c 0.17477,-4.25999 1.226,-7.09929 2.77539,-8.91016 1.54938,-1.81087 3.62329,-2.66564 6.10742,-2.85156 z" id="path12" inkscape:connector-curvature="0"/>
        <g style="fill:#c09300;stroke:none" id="w">
          <path inkscape:connector-curvature="0" id="path15" d="m 393.47,246.49 -4.7342,112.32 -8.0347,7.168 4.8784,-115.47 c 2.2949,-1.5782 6.3132,-4.0171 7.8905,-4.0171 z"/>
          <path inkscape:connector-curvature="0" id="path17" d="m 403.09,254.53 -4.0171,93.955 -8.0323,8.2204 4.8772,-108.49 c 1.5791,1.577 6.3138,5.4498 7.1721,6.3104 z"/>
          <path inkscape:connector-curvature="0" id="path19" d="m 411.84,261.7 -3.1545,78.362 -6.4556,6.3092 4.0177,-89.405 c 1.5748,1.5782 4.7311,3.8734 5.5924,4.7334 z"/>
          <path inkscape:connector-curvature="0" id="path21" d="m 421.31,265.72 -3.1563,66.787 -6.3132,5.1193 3.1563,-74.344 c 1.5791,0.71638 4.7348,2.4376 6.3132,2.4376 z"/>
          <path inkscape:connector-curvature="0" id="path23" d="m 430.06,265.72 -2.2974,55.657 -6.4544,6.3129 2.4392,-61.252 c 1.576,-6.1e-4 5.5937,-6.1e-4 6.3126,-0.7182 z"/>
        </g>
        <use height="1052.3622" width="744.09448" y="0" x="0" id="use25" transform="matrix(-1,0,0,1,900,0)" xlink:href="#w" style="stroke-width:1.240924"/>
        <path style="fill:#c09300;stroke-width:1.33262825" inkscape:connector-curvature="0" id="path27" d="m 453.16,315.06 9.6126,43.755 -3.1575,3.1552 -3.2993,-2.4388 -5.4518,-39.018 2.2955,39.018 -3.1569,4.0158 -3.1563,-4.0158 2.2962,-39.018 -5.4506,39.018 -3.3024,2.4388 -3.1545,-3.1552 9.6113,-43.755 6.3138,0 z"/>
        <g style="fill:none;stroke-width:1.57659376;stroke-linejoin:round" id="b">
          <path style="fill:#ffffff;stroke-width:1.47521031" inkscape:connector-curvature="0" id="path30" d="m 428.48,295.84 -19.08,67.705 26.255,4.0177 11.188,-50.924 -18.363,-20.799 z"/>
          <path inkscape:connector-curvature="0" id="path32" d="m 422.17,318.94 2.2955,5.5928 12.405,-11.848" style="stroke-width:1.57659376"/>
          <path inkscape:connector-curvature="0" id="path34" d="m 430.76,304.92 2.5957,24.346 7.8905,-10.328" style="stroke-width:1.57659376"/>
          <path inkscape:connector-curvature="0" id="path36" d="m 438.09,322.95 4.31,14.875" style="stroke-width:1.57659376"/>
          <path inkscape:connector-curvature="0" id="path38" d="m 444.09,332.36 -8.7177,13.241 m 2.7189,13.216 -2.7902,-13.198 -2.4356,-13.423 -5.8406,7.9091 -2.5613,-9.1191 -8.1747,8.3847 4.1575,15.251 5.7375,-9.4349 3.1557,9.6123 5.8903,-9.1621" style="stroke-width:1.57659376"/>
          <path inkscape:connector-curvature="0" id="path40" d="m 414.99,361.97 5.2997,-7.4437 3.4528,11.457 4.7342,-8.0323 3.1575,9.6136" style="stroke-width:1.57659376"/>
        </g>
        <use height="1052.3622" width="744.09448" y="0" x="0" id="use42" transform="matrix(-1,0,0,1,900,0)" xlink:href="#b" style="stroke-width:1.240924"/>
        <g style="stroke-width:1.57659376;stroke-linecap:round;stroke-linejoin:round" id="g44">
          <path style="color:#000000;font-style:normal;font-variant:normal;font-weight:normal;font-stretch:normal;font-size:medium;line-height:normal;font-family:sans-serif;text-indent:0;text-align:start;text-decoration:none;text-decoration-line:none;text-decoration-style:solid;text-decoration-color:#000000;letter-spacing:normal;word-spacing:normal;text-transform:none;direction:ltr;block-progression:tb;writing-mode:lr-tb;baseline-shift:baseline;text-anchor:start;white-space:normal;clip-rule:nonzero;display:inline;overflow:visible;visibility:visible;opacity:1;isolation:auto;mix-blend-mode:normal;color-interpolation:sRGB;color-interpolation-filters:linearRGB;solid-color:#000000;solid-opacity:1;fill:#c09300;fill-opacity:1;fill-rule:nonzero;stroke:none;stroke-width:2.95054507;stroke-linecap:butt;stroke-linejoin:round;stroke-miterlimit:4;stroke-dasharray:none;stroke-dashoffset:0;stroke-opacity:1;color-rendering:auto;image-rendering:auto;shape-rendering:auto;text-rendering:auto;enable-background:accumulate" d="m 404.29102,363.78516 c -1.33997,-0.0761 -2.66176,0.0608 -3.88672,0.48046 -2.06439,0.70726 -3.68825,2.5143 -4.17188,5.01954 -0.7744,0.10492 -1.49983,0.32768 -2.0625,0.71484 -0.93106,0.64065 -1.56596,1.46107 -2.125,2.17578 -0.55904,0.71472 -1.05229,1.32982 -1.41992,1.6211 -0.36763,0.29127 -0.41676,0.32492 -0.79297,0.22656 l -0.008,0.0566 c -0.12867,-0.0167 -0.23395,-0.10547 -0.36524,-0.10547 a 1.4754201,1.4754201 0 0 0 -0.37304,2.90234 c 0.12999,0.034 0.2493,-0.0222 0.3789,-0.004 l -0.006,0.0527 c 0.40784,0 0.18494,-0.0835 0.31446,0.14649 0.12951,0.22995 0.30737,0.89199 0.51367,1.72656 0.2063,0.83457 0.4783,1.85631 1.125,2.84375 0.47923,0.73173 1.26218,1.3551 2.19336,1.85937 0.007,1.30674 0.0628,2.63636 0.76562,3.91797 0.85742,1.56341 2.62238,2.62809 5.2793,3.10156 11.36455,3.22337 30.39435,4.76368 50.34961,4.76368 19.95986,0 38.9938,-1.54329 50.49219,-4.76368 2.59847,-0.47496 4.3348,-1.55599 5.16601,-3.11718 0.68044,-1.27801 0.73405,-2.60058 0.74024,-3.9043 0.93012,-0.50415 1.71257,-1.12626 2.1914,-1.85742 0.64671,-0.98749 0.92073,-2.01113 1.12696,-2.8457 0.20622,-0.83458 0.38225,-1.49473 0.51172,-1.72461 0.12946,-0.22989 -0.0936,-0.14649 0.31445,-0.14649 l -0.006,-0.0527 c 0.12961,-0.0183 0.2489,0.0379 0.37891,0.004 a 1.4754201,1.4754201 0 0 0 -0.37305,-2.90234 c -0.13144,0 -0.23643,0.0888 -0.36524,0.10547 l -0.008,-0.0566 c -0.37647,0.0984 -0.42536,0.0647 -0.79297,-0.22656 -0.36761,-0.29125 -0.86103,-0.90642 -1.41992,-1.6211 -0.55889,-0.71468 -1.19416,-1.53508 -2.125,-2.17578 -0.56244,-0.38713 -1.28639,-0.60986 -2.06055,-0.71484 -0.48352,-2.50604 -2.10861,-4.31225 -4.17382,-5.01954 -2.45051,-0.83923 -5.28681,-0.5473 -7.88282,0.31641 a 1.4754201,1.4754201 0 0 0 -0.002,0 c -9.0342,3.01245 -25.82263,3.79837 -41.69922,3.79883 -15.95088,-0.7173 -32.60344,-0.8038 -41.72656,-3.79883 l -0.006,-0.002 c -1.29613,-0.43077 -2.65228,-0.71899 -3.99023,-0.79492 z m -0.16211,2.9707 c 1.04017,0.0578 2.15736,0.26925 3.22656,0.625 a 1.4754201,1.4754201 0 0 0 0.006,0.002 c 10.09171,3.31521 26.69444,3.23177 42.57226,3.94727 a 1.4754201,1.4754201 0 0 0 0.0664,0.002 c 15.96932,0 32.74432,-0.6493 42.64648,-3.95117 2.1385,-0.71149 4.46523,-0.84851 5.9961,-0.32422 1.53087,0.52429 2.39258,1.35553 2.39258,3.66211 a 1.4754201,1.4754201 0 0 0 1.78515,1.44141 c 0.62612,-0.13444 0.90344,-0.0309 1.33985,0.26953 0.4364,0.30037 0.93788,0.88061 1.47265,1.56445 0.52519,0.67158 1.08067,1.43532 1.87696,2.07813 -0.30436,0.69986 -0.50433,1.39485 -0.65821,2.01757 -0.188,0.76082 -0.39788,1.43265 -0.72851,1.9375 -0.33064,0.50486 -0.74082,0.89359 -1.64063,1.19336 a 1.4754201,1.4754201 0 0 0 -1.00976,1.40039 c 0,1.57885 -0.0674,2.73794 -0.41797,3.39649 -0.35063,0.65855 -0.97903,1.22177 -3.10547,1.60742 a 1.4754201,1.4754201 0 0 0 -0.13672,0.0312 c -10.89082,3.07228 -29.9473,4.67773 -49.8125,4.67773 -19.86219,0 -38.9239,-1.60705 -49.66211,-4.67578 a 1.4754201,1.4754201 0 0 0 -0.15039,-0.0352 c -2.20403,-0.38805 -2.87167,-0.96687 -3.23047,-1.6211 -0.35879,-0.65422 -0.42773,-1.80206 -0.42773,-3.38086 a 1.4754201,1.4754201 0 0 0 -1.00977,-1.40039 c -0.89964,-0.29975 -1.30799,-0.68845 -1.63867,-1.19336 -0.33068,-0.50491 -0.54239,-1.17667 -0.73047,-1.9375 -0.15394,-0.62272 -0.35382,-1.31776 -0.6582,-2.01757 0.79624,-0.64277 1.35168,-1.40658 1.87695,-2.07813 0.53486,-0.6838 1.03798,-1.26206 1.47461,-1.5625 0.43663,-0.30044 0.71334,-0.40595 1.33984,-0.27148 a 1.4754201,1.4754201 0 0 0 1.78516,-1.44141 c 0,-2.30682 0.8606,-3.13793 2.39063,-3.66211 0.76501,-0.26209 1.72935,-0.35855 2.76953,-0.30078 z" id="path46" inkscape:connector-curvature="0"/>
          <path inkscape:connector-curvature="0" id="path48" d="m 422.89,363.54 c 6.4544,0.86123 13.628,1.5776 19.225,0.86123 3.1533,0 5.4494,5.4504 -0.86257,6.3129 -5.5931,0.71515 -14.345,0 -19.08,-0.86245 -4.0171,-0.71759 -12.768,-2.2946 -18.364,-3.8752 -5.5949,-2.4364 -1.576,-7.168 1.5772,-6.4522 4.879,1.577 11.192,3.1564 17.505,4.0158 z" style="stroke-width:1.57659376"/>
          <path inkscape:connector-curvature="0" id="path50" d="m 477.12,363.54 c -6.4569,0.86123 -13.628,1.5776 -19.081,0.86123 -3.3006,0 -5.5961,5.4504 0.71711,6.3129 5.5955,0.71515 14.347,0 19.078,-0.86245 4.0189,-0.71759 12.769,-2.2946 18.364,-3.8752 5.5967,-2.4364 1.5803,-7.168 -1.5772,-6.4522 -4.8778,1.577 -11.19,3.1564 -17.501,4.0158 z" style="stroke-width:1.57659376"/>
          <path inkscape:connector-curvature="0" id="path52" d="m 403.09,360.39 c -4.8771,-0.86123 -7.1723,4.7316 -5.5928,7.8868 0.71637,-1.5776 4.0164,-1.5776 4.7346,-3.1552 0.8582,-2.437 -0.7182,-2.437 0.8582,-4.7316 z" style="stroke-width:1.57659376"/>
          <path style="color:#000000;font-style:normal;font-variant:normal;font-weight:normal;font-stretch:normal;font-size:medium;line-height:normal;font-family:sans-serif;text-indent:0;text-align:start;text-decoration:none;text-decoration-line:none;text-decoration-style:solid;text-decoration-color:#000000;letter-spacing:normal;word-spacing:normal;text-transform:none;direction:ltr;block-progression:tb;writing-mode:lr-tb;baseline-shift:baseline;text-anchor:start;white-space:normal;clip-rule:nonzero;display:inline;overflow:visible;visibility:visible;opacity:1;isolation:auto;mix-blend-mode:normal;color-interpolation:sRGB;color-interpolation-filters:linearRGB;solid-color:#000000;solid-opacity:1;fill:#c09300;fill-opacity:1;fill-rule:nonzero;stroke:none;stroke-width:1.57659376;stroke-linecap:butt;stroke-linejoin:miter;stroke-miterlimit:4;stroke-dasharray:none;stroke-dashoffset:0;stroke-opacity:1;color-rendering:auto;image-rendering:auto;shape-rendering:auto;text-rendering:auto;enable-background:accumulate" d="m 422.88867,364.33398 c -1.05186,0 -2.01255,0.49944 -2.72851,1.21485 -0.69157,0.69102 -1.16259,1.61724 -1.19532,2.62695 -0.37254,1.78493 0.38344,3.05809 1.0918,3.97656 0.71967,0.93314 1.32422,1.59531 1.32422,2.90821 a 0.78906,0.78906 0 0 0 1.57812,0 c 0,-1.3135 0.51985,-1.67535 1.3086,-2.36719 0.78875,-0.69184 1.8457,-1.71388 1.8457,-3.55469 0,-0.93162 -0.23098,-2.0148 -0.71289,-2.95898 -0.48191,-0.94418 -1.31643,-1.84571 -2.51172,-1.84571 z" id="path3531"/>
          <path style="color:#000000;font-style:normal;font-variant:normal;font-weight:normal;font-stretch:normal;font-size:medium;line-height:normal;font-family:sans-serif;text-indent:0;text-align:start;text-decoration:none;text-decoration-line:none;text-decoration-style:solid;text-decoration-color:#000000;letter-spacing:normal;word-spacing:normal;text-transform:none;direction:ltr;block-progression:tb;writing-mode:lr-tb;baseline-shift:baseline;text-anchor:start;white-space:normal;clip-rule:nonzero;display:inline;overflow:visible;visibility:visible;opacity:1;isolation:auto;mix-blend-mode:normal;color-interpolation:sRGB;color-interpolation-filters:linearRGB;solid-color:#000000;solid-opacity:1;fill:#ffffff;fill-opacity:1;fill-rule:nonzero;stroke:none;stroke-width:1.57659376;stroke-linecap:butt;stroke-linejoin:miter;stroke-miterlimit:4;stroke-dasharray:none;stroke-dashoffset:0;stroke-opacity:1;color-rendering:auto;image-rendering:auto;shape-rendering:auto;text-rendering:auto;enable-background:accumulate" d="m 422.88867,365.91016 c 0.38258,0 0.7654,0.31621 1.10742,0.98632 0.34203,0.67012 0.54102,1.59681 0.54102,2.24219 0,1.31559 -0.52205,1.67753 -1.31055,2.36914 -0.31371,0.27516 -0.65347,0.66006 -0.96875,1.07031 -0.30508,-0.52858 -0.65374,-1.00048 -0.95312,-1.38867 -0.67966,-0.88126 -1.10821,-1.41177 -0.80664,-2.73828 a 0.78837571,0.78837571 0 0 0 0.0195,-0.17383 c 0,-0.5258 0.2877,-1.14548 0.75586,-1.61328 0.46816,-0.46779 1.0886,-0.7539 1.61523,-0.7539 z" id="path54"/>
          <path style="color:#000000;font-style:normal;font-variant:normal;font-weight:normal;font-stretch:normal;font-size:medium;line-height:normal;font-family:sans-serif;text-indent:0;text-align:start;text-decoration:none;text-decoration-line:none;text-decoration-style:solid;text-decoration-color:#000000;letter-spacing:normal;word-spacing:normal;text-transform:none;direction:ltr;block-progression:tb;writing-mode:lr-tb;baseline-shift:baseline;text-anchor:start;white-space:normal;clip-rule:nonzero;display:inline;overflow:visible;visibility:visible;opacity:1;isolation:auto;mix-blend-mode:normal;color-interpolation:sRGB;color-interpolation-filters:linearRGB;solid-color:#000000;solid-opacity:1;fill:#c09300;fill-opacity:1;fill-rule:nonzero;stroke:none;stroke-width:1.57659376;stroke-linecap:butt;stroke-linejoin:miter;stroke-miterlimit:4;stroke-dasharray:none;stroke-dashoffset:0;stroke-opacity:1;color-rendering:auto;image-rendering:auto;shape-rendering:auto;text-rendering:auto;enable-background:accumulate" d="m 444.88086,365.19141 a 0.78837571,0.78837571 0 0 0 -0.65039,1.23437 c 0.31404,0.45777 0.27658,0.57491 0.24414,0.67383 -0.0324,0.0989 -0.20484,0.31414 -0.53516,0.58984 -0.33032,0.2757 -0.7778,0.60181 -1.17383,1.07813 -0.39602,0.47631 -0.7246,1.14559 -0.7246,1.95117 0,0.72882 0.44095,1.26591 0.88867,1.66797 0.44771,0.40206 0.96799,0.73376 1.45703,1.07422 0.48904,0.34045 0.94362,0.68623 1.24023,1.02344 0.29662,0.3372 0.42969,0.62095 0.42969,0.96484 a 0.78837571,0.78837571 0 0 0 1.42578,0.46484 c 1.28025,-1.75951 2.01072,-4.24336 1.80078,-6.45703 -0.10497,-1.10683 -0.45999,-2.16719 -1.19531,-2.97265 -0.73532,-0.80547 -1.84904,-1.29297 -3.20703,-1.29297 z" id="path3543"/>
          <path style="color:#000000;font-style:normal;font-variant:normal;font-weight:normal;font-stretch:normal;font-size:medium;line-height:normal;font-family:sans-serif;text-indent:0;text-align:start;text-decoration:none;text-decoration-line:none;text-decoration-style:solid;text-decoration-color:#000000;letter-spacing:normal;word-spacing:normal;text-transform:none;direction:ltr;block-progression:tb;writing-mode:lr-tb;baseline-shift:baseline;text-anchor:start;white-space:normal;clip-rule:nonzero;display:inline;overflow:visible;visibility:visible;opacity:1;isolation:auto;mix-blend-mode:normal;color-interpolation:sRGB;color-interpolation-filters:linearRGB;solid-color:#000000;solid-opacity:1;fill:#ffffff;fill-opacity:1;fill-rule:nonzero;stroke:none;stroke-width:1.57659376;stroke-linecap:butt;stroke-linejoin:miter;stroke-miterlimit:4;stroke-dasharray:none;stroke-dashoffset:0;stroke-opacity:1;color-rendering:auto;image-rendering:auto;shape-rendering:auto;text-rendering:auto;enable-background:accumulate" d="m 445.83008,366.92969 c 0.44953,0.13139 0.82569,0.32356 1.09375,0.61719 0.4355,0.47704 0.70692,1.19242 0.78906,2.05859 0.11912,1.25603 -0.28059,2.69266 -0.84766,3.9707 -0.0294,-0.0358 -0.0245,-0.0984 -0.0547,-0.13281 -0.45646,-0.51893 -1.00838,-0.91682 -1.52344,-1.27539 -0.51506,-0.35857 -0.99738,-0.68086 -1.30273,-0.95508 -0.30536,-0.27422 -0.36719,-0.43506 -0.36719,-0.49414 0,-0.41537 0.12471,-0.66113 0.35937,-0.94336 0.23466,-0.28223 0.59531,-0.55841 0.97461,-0.875 0.37931,-0.31659 0.8171,-0.68535 1.02149,-1.30859 0.0657,-0.20046 -0.13266,-0.44252 -0.14258,-0.66211 z" id="path56"/>
          <path inkscape:connector-curvature="0" id="path58" d="m 496.91,360.39 c 4.8777,-0.86123 7.1741,4.7316 5.5953,7.8868 -0.71819,-1.5776 -4.017,-1.5776 -4.734,-3.1552 -0.86124,-2.437 0.71759,-2.437 -0.86124,-4.7316 z" style="stroke-width:1.57659376"/>
          <path style="color:#000000;font-style:normal;font-variant:normal;font-weight:normal;font-stretch:normal;font-size:medium;line-height:normal;font-family:sans-serif;text-indent:0;text-align:start;text-decoration:none;text-decoration-line:none;text-decoration-style:solid;text-decoration-color:#000000;letter-spacing:normal;word-spacing:normal;text-transform:none;direction:ltr;block-progression:tb;writing-mode:lr-tb;baseline-shift:baseline;text-anchor:start;white-space:normal;clip-rule:nonzero;display:inline;overflow:visible;visibility:visible;opacity:1;isolation:auto;mix-blend-mode:normal;color-interpolation:sRGB;color-interpolation-filters:linearRGB;solid-color:#000000;solid-opacity:1;fill:#c09300;fill-opacity:1;fill-rule:nonzero;stroke:none;stroke-width:1.57659376;stroke-linecap:butt;stroke-linejoin:miter;stroke-miterlimit:4;stroke-dasharray:none;stroke-dashoffset:0;stroke-opacity:1;color-rendering:auto;image-rendering:auto;shape-rendering:auto;text-rendering:auto;enable-background:accumulate" d="m 477.11523,364.33398 c -1.19543,0 -2.03149,0.90151 -2.51367,1.84571 -0.48217,0.94419 -0.71289,2.02726 -0.71289,2.95898 0,1.8407 1.05728,2.86285 1.84571,3.55469 0.78842,0.69184 1.30664,1.05359 1.30664,2.36719 a 0.78837571,0.78837571 0 0 0 0.78906,0.78711 0.78837571,0.78837571 0 0 0 0.78906,-0.78711 c 0,-1.31279 0.60425,-1.97508 1.32422,-2.90821 0.70865,-0.91846 1.46435,-2.19154 1.0918,-3.97656 -0.0327,-1.0097 -0.50199,-1.93401 -1.19336,-2.625 -0.71578,-0.71538 -1.67513,-1.2168 -2.72657,-1.2168 z" id="path3535"/>
          <path style="color:#000000;font-style:normal;font-variant:normal;font-weight:normal;font-stretch:normal;font-size:medium;line-height:normal;font-family:sans-serif;text-indent:0;text-align:start;text-decoration:none;text-decoration-line:none;text-decoration-style:solid;text-decoration-color:#000000;letter-spacing:normal;word-spacing:normal;text-transform:none;direction:ltr;block-progression:tb;writing-mode:lr-tb;baseline-shift:baseline;text-anchor:start;white-space:normal;clip-rule:nonzero;display:inline;overflow:visible;visibility:visible;opacity:1;isolation:auto;mix-blend-mode:normal;color-interpolation:sRGB;color-interpolation-filters:linearRGB;solid-color:#000000;solid-opacity:1;fill:#ffffff;fill-opacity:1;fill-rule:nonzero;stroke:none;stroke-width:1.57659376;stroke-linecap:butt;stroke-linejoin:miter;stroke-miterlimit:4;stroke-dasharray:none;stroke-dashoffset:0;stroke-opacity:1;color-rendering:auto;image-rendering:auto;shape-rendering:auto;text-rendering:auto;enable-background:accumulate" d="m 477.11523,365.91016 c 0.52577,0 1.14326,0.28609 1.61133,0.7539 0.46807,0.46782 0.75586,1.0875 0.75586,1.61328 a 0.78837571,0.78837571 0 0 0 0.0195,0.17383 c 0.30155,1.32641 -0.12668,1.85701 -0.80664,2.73828 -0.29952,0.3882 -0.64791,0.86007 -0.95312,1.38867 -0.31498,-0.40982 -0.6554,-0.79534 -0.96875,-1.07031 -0.78818,-0.69161 -1.3086,-1.05344 -1.3086,-2.36914 0,-0.64528 0.19881,-1.57208 0.54102,-2.24219 0.34221,-0.6701 0.72634,-0.98632 1.10937,-0.98632 z" id="path60"/>
          <path style="color:#000000;font-style:normal;font-variant:normal;font-weight:normal;font-stretch:normal;font-size:medium;line-height:normal;font-family:sans-serif;text-indent:0;text-align:start;text-decoration:none;text-decoration-line:none;text-decoration-style:solid;text-decoration-color:#000000;letter-spacing:normal;word-spacing:normal;text-transform:none;direction:ltr;block-progression:tb;writing-mode:lr-tb;baseline-shift:baseline;text-anchor:start;white-space:normal;clip-rule:nonzero;display:inline;overflow:visible;visibility:visible;opacity:1;isolation:auto;mix-blend-mode:normal;color-interpolation:sRGB;color-interpolation-filters:linearRGB;solid-color:#000000;solid-opacity:1;fill:#c09300;fill-opacity:1;fill-rule:nonzero;stroke:none;stroke-width:1.57659376;stroke-linecap:butt;stroke-linejoin:miter;stroke-miterlimit:4;stroke-dasharray:none;stroke-dashoffset:0;stroke-opacity:1;color-rendering:auto;image-rendering:auto;shape-rendering:auto;text-rendering:auto;enable-background:accumulate" d="m 455.11914,365.19141 c -1.35837,0 -2.47148,0.48752 -3.20703,1.29297 -0.73556,0.80544 -1.09026,1.8658 -1.19531,2.97265 -0.21011,2.21371 0.51894,4.69755 1.79882,6.45703 a 0.78837571,0.78837571 0 0 0 1.42579,-0.46484 c 0,-0.34393 0.13312,-0.62765 0.42968,-0.96484 0.29657,-0.3372 0.75127,-0.68299 1.24024,-1.02344 0.48896,-0.34046 1.00937,-0.67215 1.45703,-1.07422 0.44766,-0.40207 0.88867,-0.9392 0.88867,-1.66797 2e-4,-0.80561 -0.32865,-1.47483 -0.72461,-1.95117 -0.39596,-0.47634 -0.84366,-0.80246 -1.17383,-1.07813 -0.33017,-0.27566 -0.50288,-0.48923 -0.53515,-0.58789 -0.0323,-0.0987 -0.0685,-0.21786 0.24609,-0.67578 a 0.78837571,0.78837571 0 0 0 -0.65039,-1.23437 z" id="path3539"/>
          <path style="color:#000000;font-style:normal;font-variant:normal;font-weight:normal;font-stretch:normal;font-size:medium;line-height:normal;font-family:sans-serif;text-indent:0;text-align:start;text-decoration:none;text-decoration-line:none;text-decoration-style:solid;text-decoration-color:#000000;letter-spacing:normal;word-spacing:normal;text-transform:none;direction:ltr;block-progression:tb;writing-mode:lr-tb;baseline-shift:baseline;text-anchor:start;white-space:normal;clip-rule:nonzero;display:inline;overflow:visible;visibility:visible;opacity:1;isolation:auto;mix-blend-mode:normal;color-interpolation:sRGB;color-interpolation-filters:linearRGB;solid-color:#000000;solid-opacity:1;fill:#ffffff;fill-opacity:1;fill-rule:nonzero;stroke:none;stroke-width:1.57659376;stroke-linecap:butt;stroke-linejoin:miter;stroke-miterlimit:4;stroke-dasharray:none;stroke-dashoffset:0;stroke-opacity:1;color-rendering:auto;image-rendering:auto;shape-rendering:auto;text-rendering:auto;enable-background:accumulate" d="m 454.16797,366.92969 c -0.0101,0.21955 -0.20817,0.4616 -0.14258,0.66211 0.20398,0.62351 0.64225,0.99197 1.02149,1.30859 0.37923,0.31663 0.74001,0.59279 0.9746,0.875 0.23459,0.28221 0.35948,0.52802 0.35938,0.94336 0,0.0591 -0.0619,0.21993 -0.36719,0.49414 -0.3053,0.27421 -0.78775,0.59651 -1.30273,0.95508 -0.51499,0.35857 -1.06704,0.75646 -1.52344,1.27539 -0.0302,0.0344 -0.0253,0.097 -0.0547,0.13281 -0.56686,-1.27798 -0.96685,-2.71481 -0.84765,-3.9707 0.0822,-0.86615 0.35534,-1.58153 0.79101,-2.05859 0.26809,-0.29356 0.64222,-0.48575 1.0918,-0.61719 z" id="path62"/>
          <g style="stroke-width:1.10628366" id="g64">
            <path style="color:#000000;font-style:normal;font-variant:normal;font-weight:normal;font-stretch:normal;font-size:medium;line-height:normal;font-family:sans-serif;text-indent:0;text-align:start;text-decoration:none;text-decoration-line:none;text-decoration-style:solid;text-decoration-color:#000000;letter-spacing:normal;word-spacing:normal;text-transform:none;direction:ltr;block-progression:tb;writing-mode:lr-tb;baseline-shift:baseline;text-anchor:start;white-space:normal;clip-rule:nonzero;display:inline;overflow:visible;visibility:visible;opacity:1;isolation:auto;mix-blend-mode:normal;color-interpolation:sRGB;color-interpolation-filters:linearRGB;solid-color:#000000;solid-opacity:1;fill:#c09300;fill-opacity:1;fill-rule:nonzero;stroke:none;stroke-width:1.10628366;stroke-linecap:butt;stroke-linejoin:miter;stroke-miterlimit:4;stroke-dasharray:none;stroke-dashoffset:0;stroke-opacity:1;color-rendering:auto;image-rendering:auto;shape-rendering:auto;text-rendering:auto;enable-background:accumulate" d="m 404.67773,361.41406 a 0.55319715,0.55319715 0 0 0 -0.31054,1.01953 l 0.006,0.002 a 0.55319715,0.55319715 0 0 0 0.11718,0.0566 0.55319715,0.55319715 0 0 0 0.0391,0.0137 l 4.70117,1.56641 a 0.55319715,0.55319715 0 0 0 0.59961,-0.87891 c -0.0587,-0.0702 -0.19833,-0.0842 -0.26563,-0.14844 l 0.0156,-0.0234 -0.14453,-0.0488 c -0.51089,-0.44072 -1.12171,-0.81154 -1.90625,-1.0625 -0.8824,-0.28227 -1.8301,-0.43715 -2.66407,-0.46094 l -0.0254,-0.008 a 0.55319715,0.55319715 0 0 0 -0.16211,-0.0274 z" id="path66" inkscape:connector-curvature="0"/>
            <path style="color:#000000;font-style:normal;font-variant:normal;font-weight:normal;font-stretch:normal;font-size:medium;line-height:normal;font-family:sans-serif;text-indent:0;text-align:start;text-decoration:none;text-decoration-line:none;text-decoration-style:solid;text-decoration-color:#000000;letter-spacing:normal;word-spacing:normal;text-transform:none;direction:ltr;block-progression:tb;writing-mode:lr-tb;baseline-shift:baseline;text-anchor:start;white-space:normal;clip-rule:nonzero;display:inline;overflow:visible;visibility:visible;opacity:1;isolation:auto;mix-blend-mode:normal;color-interpolation:sRGB;color-interpolation-filters:linearRGB;solid-color:#000000;solid-opacity:1;fill:#c09300;fill-opacity:1;fill-rule:nonzero;stroke:none;stroke-width:1.10628366;stroke-linecap:butt;stroke-linejoin:miter;stroke-miterlimit:4;stroke-dasharray:none;stroke-dashoffset:0;stroke-opacity:1;color-rendering:auto;image-rendering:auto;shape-rendering:auto;text-rendering:auto;enable-background:accumulate" d="m 412.53125,363.85156 a 0.55319715,0.55319715 0 0 0 -0.40625,0.91211 l 0.004,0.006 a 0.55319715,0.55319715 0 0 0 0.33007,0.18555 l 5.53711,1.5625 A 0.55319715,0.55319715 0 0 0 418.41016,365.5 c -0.0313,-0.017 -0.0831,-0.0242 -0.11524,-0.041 l 0.002,-0.006 -0.0703,-0.0195 c -0.8532,-0.43675 -1.95253,-0.81745 -3.00781,-1.09375 -1.01555,-0.26589 -1.82747,-0.40607 -2.41992,-0.4375 l -0.10352,-0.0293 a 0.55319715,0.55319715 0 0 0 -0.16406,-0.0215 z" id="path68" inkscape:connector-curvature="0"/>
            <path style="color:#000000;font-style:normal;font-variant:normal;font-weight:normal;font-stretch:normal;font-size:medium;line-height:normal;font-family:sans-serif;text-indent:0;text-align:start;text-decoration:none;text-decoration-line:none;text-decoration-style:solid;text-decoration-color:#000000;letter-spacing:normal;word-spacing:normal;text-transform:none;direction:ltr;block-progression:tb;writing-mode:lr-tb;baseline-shift:baseline;text-anchor:start;white-space:normal;clip-rule:nonzero;display:inline;overflow:visible;visibility:visible;opacity:1;isolation:auto;mix-blend-mode:normal;color-interpolation:sRGB;color-interpolation-filters:linearRGB;solid-color:#000000;solid-opacity:1;fill:#c09300;fill-opacity:1;fill-rule:nonzero;stroke:none;stroke-width:1.10628366;stroke-linecap:butt;stroke-linejoin:miter;stroke-miterlimit:4;stroke-dasharray:none;stroke-dashoffset:0;stroke-opacity:1;color-rendering:auto;image-rendering:auto;shape-rendering:auto;text-rendering:auto;enable-background:accumulate" d="m 441.2168,367.00195 a 0.55319715,0.55319715 0 0 0 -0.041,0.004 l -0.041,0.006 c -0.78802,7e-5 -1.91186,-0.003 -2.9961,0.0859 -0.56297,0.046 -1.10789,0.11478 -1.58984,0.22461 -0.36786,0.0838 -0.66211,0.23419 -0.95117,0.40234 l -0.0117,0.002 0.002,0.002 c -0.0865,0.0509 -0.20668,0.0557 -0.28516,0.12109 a 0.55319715,0.55319715 0 0 0 0.42579,0.97461 l 5.2246,-0.67383 -0.0156,-0.0273 c 0.0892,-1.1e-4 0.23091,-0.01 0.3125,-0.01 a 0.55319715,0.55319715 0 0 0 0.47852,-0.83008 l -0.002,-0.006 a 0.55319715,0.55319715 0 0 0 -0.50976,-0.27539 z" id="path70" inkscape:connector-curvature="0"/>
            <path style="color:#000000;font-style:normal;font-variant:normal;font-weight:normal;font-stretch:normal;font-size:medium;line-height:normal;font-family:sans-serif;text-indent:0;text-align:start;text-decoration:none;text-decoration-line:none;text-decoration-style:solid;text-decoration-color:#000000;letter-spacing:normal;word-spacing:normal;text-transform:none;direction:ltr;block-progression:tb;writing-mode:lr-tb;baseline-shift:baseline;text-anchor:start;white-space:normal;clip-rule:nonzero;display:inline;overflow:visible;visibility:visible;opacity:1;isolation:auto;mix-blend-mode:normal;color-interpolation:sRGB;color-interpolation-filters:linearRGB;solid-color:#000000;solid-opacity:1;fill:#c09300;fill-opacity:1;fill-rule:nonzero;stroke:none;stroke-width:1.10628366;stroke-linecap:butt;stroke-linejoin:miter;stroke-miterlimit:4;stroke-dasharray:none;stroke-dashoffset:0;stroke-opacity:1;color-rendering:auto;image-rendering:auto;shape-rendering:auto;text-rendering:auto;enable-background:accumulate" d="m 429.97266,366.35938 c -1.05853,0 -2.13429,0.23871 -3.02344,0.64843 l -0.043,0 0.002,0.01 c -0.0781,0.0368 -0.19335,0.016 -0.26758,0.0566 a 0.55319715,0.55319715 0 0 0 0.26563,1.03906 l 5.58984,0 0.004,0 a 0.55319715,0.55319715 0 0 0 0.39258,-0.94336 c -0.66858,-0.67142 -1.75334,-0.81054 -2.91992,-0.81054 z" id="path72" inkscape:connector-curvature="0"/>
            <path style="color:#000000;font-style:normal;font-variant:normal;font-weight:normal;font-stretch:normal;font-size:medium;line-height:normal;font-family:sans-serif;text-indent:0;text-align:start;text-decoration:none;text-decoration-line:none;text-decoration-style:solid;text-decoration-color:#000000;letter-spacing:normal;word-spacing:normal;text-transform:none;direction:ltr;block-progression:tb;writing-mode:lr-tb;baseline-shift:baseline;text-anchor:start;white-space:normal;clip-rule:nonzero;display:inline;overflow:visible;visibility:visible;opacity:1;isolation:auto;mix-blend-mode:normal;color-interpolation:sRGB;color-interpolation-filters:linearRGB;solid-color:#000000;solid-opacity:1;fill:#c09300;fill-opacity:1;fill-rule:nonzero;stroke:none;stroke-width:1.10628366;stroke-linecap:butt;stroke-linejoin:miter;stroke-miterlimit:4;stroke-dasharray:none;stroke-dashoffset:0;stroke-opacity:1;color-rendering:auto;image-rendering:auto;shape-rendering:auto;text-rendering:auto;enable-background:accumulate" d="m 495.33984,361.41602 c -0.054,0 -0.1188,0.0298 -0.17382,0.0312 l 0,-0.002 -0.008,0.002 c -0.83168,0.0227 -1.75865,0.17957 -2.62695,0.46289 -0.80564,0.26287 -1.47099,0.64021 -2.01172,1.08203 l -0.0898,0.0293 0.008,0.0137 c -0.0586,0.0504 -0.17129,0.0678 -0.22461,0.12109 a 0.55319715,0.55319715 0 0 0 0.56641,0.91602 l 4.73632,-1.57813 a 0.55319715,0.55319715 0 0 0 -0.17578,-1.07812 z" id="path74" inkscape:connector-curvature="0"/>
            <path style="color:#000000;font-style:normal;font-variant:normal;font-weight:normal;font-stretch:normal;font-size:medium;line-height:normal;font-family:sans-serif;text-indent:0;text-align:start;text-decoration:none;text-decoration-line:none;text-decoration-style:solid;text-decoration-color:#000000;letter-spacing:normal;word-spacing:normal;text-transform:none;direction:ltr;block-progression:tb;writing-mode:lr-tb;baseline-shift:baseline;text-anchor:start;white-space:normal;clip-rule:nonzero;display:inline;overflow:visible;visibility:visible;opacity:1;isolation:auto;mix-blend-mode:normal;color-interpolation:sRGB;color-interpolation-filters:linearRGB;solid-color:#000000;solid-opacity:1;fill:#c09300;fill-opacity:1;fill-rule:nonzero;stroke:none;stroke-width:1.10628366;stroke-linecap:butt;stroke-linejoin:miter;stroke-miterlimit:4;stroke-dasharray:none;stroke-dashoffset:0;stroke-opacity:1;color-rendering:auto;image-rendering:auto;shape-rendering:auto;text-rendering:auto;enable-background:accumulate" d="m 487.42383,363.85352 a 0.55319715,0.55319715 0 0 0 -0.11914,0.0195 l -0.10352,0.0293 c -0.59192,0.0314 -1.40439,0.17161 -2.41992,0.4375 -1.0579,0.27699 -2.16142,0.65753 -3.01563,1.09571 l -0.0605,0.0176 0.002,0.004 c -0.0328,0.0172 -0.0853,0.0256 -0.11719,0.043 a 0.55319715,0.55319715 0 0 0 0.41602,1.01758 l 5.54492,-1.56446 0.01,-0.002 a 0.55319715,0.55319715 0 0 0 0.28515,-0.15429 l 0.004,-0.004 a 0.55319715,0.55319715 0 0 0 -0.42578,-0.93945 z" id="path76" inkscape:connector-curvature="0"/>
            <path style="color:#000000;font-style:normal;font-variant:normal;font-weight:normal;font-stretch:normal;font-size:medium;line-height:normal;font-family:sans-serif;text-indent:0;text-align:start;text-decoration:none;text-decoration-line:none;text-decoration-style:solid;text-decoration-color:#000000;letter-spacing:normal;word-spacing:normal;text-transform:none;direction:ltr;block-progression:tb;writing-mode:lr-tb;baseline-shift:baseline;text-anchor:start;white-space:normal;clip-rule:nonzero;display:inline;overflow:visible;visibility:visible;opacity:1;isolation:auto;mix-blend-mode:normal;color-interpolation:sRGB;color-interpolation-filters:linearRGB;solid-color:#000000;solid-opacity:1;fill:#c09300;fill-opacity:1;fill-rule:nonzero;stroke:none;stroke-width:1.10628366;stroke-linecap:butt;stroke-linejoin:miter;stroke-miterlimit:4;stroke-dasharray:none;stroke-dashoffset:0;stroke-opacity:1;color-rendering:auto;image-rendering:auto;shape-rendering:auto;text-rendering:auto;enable-background:accumulate" d="m 458.75977,367.00195 a 0.55319715,0.55319715 0 0 0 -0.41211,0.93946 l 0.006,0.004 a 0.55319715,0.55319715 0 0 0 0.39648,0.16797 l 5.52539,0.71094 a 0.55319715,0.55319715 0 0 0 0.42383,-0.97461 c -0.0785,-0.0653 -0.19868,-0.0702 -0.28516,-0.12109 l 0.002,-0.002 -0.0117,-0.002 c -0.28918,-0.16803 -0.58322,-0.31853 -0.95118,-0.40234 -0.48207,-0.10982 -1.02675,-0.1786 -1.58984,-0.22461 -1.08801,-0.0889 -2.21876,-0.0859 -3.00781,-0.0859 l -0.0391,-0.006 a 0.55319715,0.55319715 0 0 0 -0.0566,-0.004 z" id="path78" inkscape:connector-curvature="0"/>
            <path style="color:#000000;font-style:normal;font-variant:normal;font-weight:normal;font-stretch:normal;font-size:medium;line-height:normal;font-family:sans-serif;text-indent:0;text-align:start;text-decoration:none;text-decoration-line:none;text-decoration-style:solid;text-decoration-color:#000000;letter-spacing:normal;word-spacing:normal;text-transform:none;direction:ltr;block-progression:tb;writing-mode:lr-tb;baseline-shift:baseline;text-anchor:start;white-space:normal;clip-rule:nonzero;display:inline;overflow:visible;visibility:visible;opacity:1;isolation:auto;mix-blend-mode:normal;color-interpolation:sRGB;color-interpolation-filters:linearRGB;solid-color:#000000;solid-opacity:1;fill:#c09300;fill-opacity:1;fill-rule:nonzero;stroke:none;stroke-width:1.10628366;stroke-linecap:butt;stroke-linejoin:miter;stroke-miterlimit:4;stroke-dasharray:none;stroke-dashoffset:0;stroke-opacity:1;color-rendering:auto;image-rendering:auto;shape-rendering:auto;text-rendering:auto;enable-background:accumulate" d="m 470.0293,366.35938 c -1.16687,0 -2.25281,0.13959 -2.92188,0.81054 l 0.38867,-0.16015 0,1.10351 0.004,0 5.5957,0 a 0.55319715,0.55319715 0 0 0 0.26563,-1.03906 c -0.0742,-0.0406 -0.18949,-0.0198 -0.26758,-0.0566 l 0.002,-0.01 -0.043,0 c -0.88919,-0.40973 -1.96465,-0.64843 -3.02343,-0.64843 z" id="path80" inkscape:connector-curvature="0"/>
          </g>
          <g style="fill:#c09300;stroke:none" id="g82">
            <path inkscape:connector-curvature="0" id="path84" d="m 403.34,374.58 c -0.53406,-0.10208 -0.81452,-0.52459 -0.68011,-1.0246 0.16371,-0.609 0.65161,-0.95739 1.1126,-0.79442 0.29312,0.10362 0.82973,0.64469 0.83184,0.83874 0.003,0.22275 -0.28059,0.75257 -0.40266,0.75379 -0.0527,5.3e-4 -0.1342,0.0465 -0.18122,0.10201 -0.10001,0.11816 -0.41341,0.17549 -0.68041,0.12446 z"/>
            <path inkscape:connector-curvature="0" id="path86" d="m 458.27,378.5 c -0.19869,-0.0736 -0.51521,-0.5185 -0.51485,-0.72377 0.002,-0.38717 0.57418,-1.0178 0.92881,-1.0214 0.17516,-0.001 0.65475,0.2481 0.83411,0.43462 0.32504,0.33789 0.25419,0.89278 -0.15423,1.2079 -0.20096,0.15505 -0.80025,0.21125 -1.0938,0.1026 z"/>
            <path inkscape:connector-curvature="0" id="path88" d="m 458.63,380.98 c -0.42018,-0.14209 -0.57388,-0.34776 -0.60803,-0.8136 -0.0355,-0.4854 0.0116,-0.56097 0.52453,-0.84064 l 0.36556,-0.19931 0.34646,0.1545 c 0.47988,0.21397 0.69338,0.44463 0.71031,0.76742 0.0182,0.34768 -0.2397,0.70345 -0.64012,0.8829 -0.35162,0.15758 -0.37253,0.15904 -0.69871,0.0488 z"/>
            <path inkscape:connector-curvature="0" id="path90" d="m 407.75,370.09 c -0.34619,-0.0109 -0.82136,0.30729 -1.0938,0.46875 -0.64912,0.15215 -1.4047,0.5511 -2.0312,0.125 -0.61719,-0.19079 -1.438,-0.0404 -1.5312,0.71875 0.15839,0.65179 1.0715,1.0243 1.625,0.59375 0.4106,-0.53758 1.5312,-0.8528 1.6562,0.0625 -0.45705,0.69215 -0.40489,1.6089 -0.78125,2.3438 -0.0612,0.45773 -0.25176,0.8924 -0.5,1.2812 -0.4621,0.0464 -0.95375,-0.008 -1.3438,0.28125 -0.62601,0.0342 -1.2647,0.34537 -1.625,0.875 -0.40338,0.57818 -0.78869,1.1654 -0.90625,1.875 0.10725,0.72494 0.93754,0.93275 1.5625,0.96875 0.66694,0.18359 1.3344,0.42433 2,0.625 1.0853,0.24303 2.102,0.63539 3.1875,0.875 1.5844,0.47758 3.2479,0.69739 4.8438,1.125 0.16722,0.0555 0.32405,0.1038 0.5,0.125 0.66233,0.13773 1.0079,-0.58289 1.0625,-1.125 0.32864,-1.1596 0.57948,-2.3391 0.90625,-3.5 0.22487,-0.46559 0.49645,-1.5172 -0.40625,-1.2812 -0.51485,0.30872 -0.95182,0.7734 -1.5938,0.8125 -0.87392,0.0509 -0.37513,0.94518 -0.0312,1.3125 0.0759,0.5872 -0.10989,1.2888 -0.5,1.75 -0.51994,0.32957 -1.1716,-0.0561 -1.7188,-0.1875 -0.57469,0.01 -1.7234,-0.28325 -1.1875,-1.0625 0.19033,-0.57691 0.20718,-1.2083 0.4375,-1.7812 0.29353,-0.61455 0.33553,-1.2851 0.46875,-1.9375 -0.36122,-0.77733 -0.97856,0.25585 -1.4688,0.34375 -0.33769,0.23455 -1.6054,0.33418 -0.9375,0.9375 0.57518,0.43696 0.1343,1.1967 0.0312,1.75 -0.0369,0.77025 -0.83781,0.95394 -1.4688,0.78125 -0.62768,-0.0303 -1.5013,-0.49748 -0.96875,-1.1875 0.12115,-0.57512 0.322,-1.1402 0.4375,-1.7188 0.2374,-0.69777 0.43732,-1.3628 0.6875,-2.0625 0.10851,-0.61996 0.33113,-1.2079 0.625,-1.75 0.0173,-0.68543 0.47775,-1.2752 0.46875,-1.9688 -0.0469,-0.33876 -0.19853,-0.4622 -0.40625,-0.46875 z m -3.5938,7.25 c 0.0817,-0.0141 0.1399,-0.002 0.21875,0.0312 0.24971,0.10625 0.25708,0.30938 0,0.53125 -0.11238,0.097 -0.23995,0.1905 -0.28125,0.1875 -0.46771,-0.0402 -0.6056,-0.10974 -0.625,-0.28125 -0.0172,-0.15117 0.0307,-0.19455 0.34375,-0.34375 0.15556,-0.0742 0.26207,-0.11086 0.34375,-0.125 z"/>
            <path inkscape:connector-curvature="0" id="path92" d="m 403.12,382.36 c -0.49596,-0.46627 -0.41621,-0.80642 0.31729,-1.3532 0.31384,-0.23393 0.50421,-0.20747 0.8631,0.11997 0.55237,0.50393 0.57448,0.82295 0.0869,1.2548 -0.24101,0.21344 -0.34645,0.25721 -0.62697,0.26001 -0.29347,0.003 -0.3766,-0.0334 -0.64036,-0.28155 z"/>
            <path inkscape:connector-curvature="0" id="path94" d="m 406.17,383.28 c -0.48488,-0.11955 -0.76441,-0.60787 -0.62254,-1.0876 0.12852,-0.43459 0.20285,-0.47736 0.84026,-0.48378 0.71478,-0.007 0.85352,0.11244 0.86039,0.74185 0.004,0.35432 -0.0235,0.43652 -0.19971,0.60041 -0.2071,0.19261 -0.6052,0.29644 -0.8784,0.22908 z"/>
            <path inkscape:connector-curvature="0" id="path96" d="m 495.28,383.36 c -0.22701,-0.18894 -0.27272,-0.27435 -0.27532,-0.51479 -0.003,-0.41064 0.23349,-0.71172 0.74605,-0.94382 0.68183,-0.30882 0.95981,-0.26636 1.2166,0.18575 0.34158,0.60129 0.32512,0.84675 -0.0839,1.252 -0.22578,0.22366 -0.26805,0.2367 -0.78493,0.2419 -0.50756,0.003 -0.56562,-0.0105 -0.8185,-0.22102 z"/>
            <path inkscape:connector-curvature="0" id="path98" d="m 410.22,384.51 c -0.36389,-0.0971 -0.5525,-0.37016 -0.55726,-0.80675 -0.004,-0.33383 0.0201,-0.38706 0.25362,-0.56985 0.15122,-0.11834 0.39018,-0.21971 0.57856,-0.24541 0.2669,-0.0365 0.36442,-0.0132 0.57916,0.13775 0.55052,0.38698 0.66746,0.76972 0.3487,1.1412 -0.33953,0.39572 -0.66141,0.48753 -1.2028,0.34303 z"/>
            <path inkscape:connector-curvature="0" id="path100" d="m 432.14,385.49 c -0.0807,-0.10062 -0.25916,-0.16012 -0.2775,-0.287 0.032,-0.55487 0.0585,-1.1167 0.23525,-1.6482 0.0962,-0.52301 0.012,-1.0692 0.19432,-1.5787 0.18698,-0.92682 0.18682,-1.8826 0.40217,-2.8036 0.01,-0.47427 0.0549,-0.949 0.19241,-1.4054 0.15774,-0.72168 0.0136,-1.4762 0.22606,-2.1894 -0.0228,-0.26786 0.28574,-0.98321 0.55658,-0.55944 0.39321,0.57645 0.91139,1.0451 1.4208,1.5153 0.43771,0.25252 0.0359,0.62445 -0.26658,0.74975 -0.41521,0.16364 -0.51613,0.62086 -0.48666,1.0222 -0.0582,0.41455 -0.22464,0.80685 -0.24153,1.23 -0.0878,0.62242 -0.0706,1.2546 -0.15153,1.8765 -0.18211,0.60901 -0.11244,1.2597 -0.17323,1.8875 0.008,0.39859 -0.18142,0.7606 -0.15525,1.1604 -0.0484,0.40592 -0.0665,0.89432 -0.40713,1.1724 -0.32888,0.16605 -0.80429,0.13737 -1.0682,-0.14228 z"/>
            <path inkscape:connector-curvature="0" id="path102" d="m 461.84,375.69 c -0.48222,0.36463 -0.91353,0.79527 -1.3438,1.2188 -0.59251,0.4489 0.48677,0.70998 0.625,1.0938 0.15716,0.58638 0.1478,1.2106 0.1875,1.8125 0.17923,0.55142 0.25835,1.1384 0.21875,1.7188 -0.0519,0.6223 -0.86338,0.49115 -1.2188,0.84375 -0.49176,0.20722 -0.68789,0.69047 -1.0625,1.0312 -0.24625,0.48275 -0.31215,1.0763 -0.34375,1.625 0.0353,0.44788 -0.30248,0.94931 0,1.3438 0.039,0.0557 0.0852,0.132 0.125,0.1875 0.10115,0.1452 0.3425,0.0292 0.5,0.0625 0.50368,-0.0282 1.0285,0.0473 1.5,-0.15625 1.21,-0.20943 2.4311,-0.22605 3.6562,-0.28125 0.74925,0.0239 1.4701,-0.23695 2.2188,-0.21875 0.58681,0.12974 0.85075,-0.50626 0.84375,-0.96875 -0.33224,-0.65359 -0.045,-1.4285 -0.3125,-2.0938 -0.23494,-0.67246 -0.14236,-1.428 -0.25,-2.125 -0.0148,-0.54835 -0.71068,-0.75172 -1.0625,-0.34375 -0.34144,0.34514 -0.89289,0.41403 -1.1562,0.84375 -0.29659,0.60239 0.62745,0.60317 0.78125,1.0625 0.17589,0.4642 0.11825,0.98059 0.15625,1.4688 0.11422,0.59237 -0.52919,0.6262 -0.9375,0.6875 -0.53675,0.20112 -1.29,0.33589 -1.5938,-0.3125 -0.1909,-0.47948 -0.16475,-0.99286 -0.21875,-1.5 -0.0131,-0.89182 -0.22755,-1.7684 -0.28125,-2.6562 -0.0514,-1.0968 -0.2407,-2.1866 -0.3125,-3.2812 -0.01,-0.45549 -0.0706,-1.198 -0.71875,-1.0625 z m -0.625,8.25 0.3125,0.0312 0.0312,0.375 0.0312,0.375 -0.40625,0.125 c -0.21512,0.0636 -0.40325,0.0943 -0.40625,0.0937 -0.003,-8.5e-4 -0.088,-0.0531 -0.1875,-0.125 -0.21959,-0.1586 -0.16345,-0.38503 0.125,-0.6875 0.1626,-0.17028 0.23879,-0.2033 0.5,-0.1875 z"/>
            <path inkscape:connector-curvature="0" id="path104" d="m 431.25,374.66 c -0.38018,0.13504 -0.86245,0.69313 -1.25,0.6875 -0.88,0.0623 -0.75718,0.91919 -0.125,1.2188 0.0833,0.25988 0.005,0.58789 0.0312,0.875 0.12288,0.7896 -0.37535,1.4249 -0.28125,2.2188 -0.0442,0.87031 -0.30695,1.7177 -0.34375,2.5938 -0.24704,0.90327 -0.24984,1.8321 -0.40625,2.75 -0.10431,0.82323 -0.69963,0.53271 -1.2188,0.3125 -0.004,-0.35689 -0.0272,-0.70562 -0.0312,-1.0625 0.21637,-0.81711 -0.44101,-1.0556 -1.0938,-1.1562 -0.68611,0.0649 -1.0228,-0.52316 -0.875,-1.125 0.29488,-0.35103 1.036,-0.2534 1.5,-0.3125 0.9813,0.20342 0.9416,-1.1118 0.4375,-1.5625 -0.34472,-0.63567 -1.1982,-0.90926 -1.4375,-1.5625 0.0956,-0.86642 -0.47971,-1.7322 -1.1875,-2.1562 -1.0885,-0.0764 -1.9104,0.86306 -2.3125,1.7812 -0.4525,0.13085 -0.90391,0.26657 -1.3438,0.4375 -0.70889,0.17748 -1.7197,1.407 -0.75,1.875 0.54424,0.14988 2.2002,0.52782 1.4688,1.2812 -0.41224,0.7071 -1.201,0.71914 -1.9062,0.53125 -0.72365,6.3e-4 -1.5294,-0.35207 -1.5,-1.1875 -0.14765,-0.74985 -0.12337,-1.5579 -0.46875,-2.25 -0.14847,-0.83929 -1.1008,-0.64297 -1.1562,0.125 -0.73341,0.53403 -0.6357,1.3978 -0.125,2.0312 0.31876,0.72891 0.003,1.5776 -0.3125,2.25 -0.19091,0.87497 -1.1559,0.90473 -1.8438,1.1875 -0.33751,0.13104 -1.6285,-0.0779 -1.1562,0.65625 0.75312,0.26578 1.6525,0.50493 2.4375,0.3125 0.82295,-0.10214 1.5375,-0.66484 1.9375,-1.375 0.55266,-0.56003 1.502,-0.26685 2.2188,-0.28125 0.7728,-0.002 1.5626,0.54243 2.3125,0.1875 0.21739,-0.56438 1.2219,-1.4958 1.5312,-0.53125 -0.0526,0.86265 0.70932,1.3257 1.5,1.2188 0.86375,-0.0494 0.54445,0.61096 0.53125,1.125 0.0571,0.93448 0.65972,1.4247 1.4375,1.8125 0.26491,0.0715 0.545,0.0474 0.8125,0 0.74793,-0.23513 1.5536,-0.5689 1.7812,-1.4062 0.30361,-0.68071 0.31071,-1.4507 0.53125,-2.1562 0.17722,-1.1299 0.406,-2.26 0.4375,-3.4062 0.27617,-1.0383 0.19684,-2.136 0.40625,-3.1875 0.13231,-0.7818 0.2308,-1.5634 0.3125,-2.3438 -0.0917,-0.41735 -0.27189,-0.48727 -0.5,-0.40625 z m -6.7812,4.1562 c 0.15144,0.0185 0.2356,0.20409 0.25,0.53125 0.016,0.36409 0.20628,0.66075 0.4375,0.71875 0.18245,0.0457 0.16681,0.23882 -0.0312,0.375 -0.11507,0.0791 -0.3209,0.127 -0.6875,0.125 -0.57804,-0.003 -0.93643,-0.15276 -1.25,-0.46875 l -0.1875,-0.1875 0.28125,-0.1875 c 0.14178,-0.10831 0.39834,-0.33259 0.5625,-0.5 0.28494,-0.29065 0.47356,-0.42473 0.625,-0.40625 z"/>
            <path inkscape:connector-curvature="0" id="path106" d="m 490.5,370.94 c -0.56713,0.026 -1.1373,0.11796 -1.6562,0.25 -1.0402,-0.0647 -1.5624,1.0271 -0.5625,1.5625 0.60166,1.5343 1.5404,-0.31684 2.5,-0.1875 1.4375,0.27956 1.559,1.8323 1.7812,3 0.0809,1.1567 0.41439,2.2816 0.75,3.375 0.96222,1.0695 -0.72072,1.7402 -1.4375,0.90625 -0.61128,-0.66434 -1.9204,-1.4795 -2.6562,-0.5625 -0.9036,0.38266 -0.94069,1.5903 -1.6875,1.9375 -1.2091,0.36803 -1.3613,-1.1188 -2,-1.75 -0.58724,-0.82427 -1.7103,-0.89646 -2.625,-1.1875 -0.42913,-0.86865 -0.20548,-2.3456 -1.0938,-2.9375 -0.7458,0.30425 -2.1131,1.7022 -0.96875,2.3438 1.1177,0.96067 -0.48782,1.4011 -1,2.0625 -0.73158,0.81456 -0.84849,1.936 -0.96875,2.9688 -1.2593,0.69566 -1.5044,-0.78769 -1.6562,-1.7188 -0.0981,-1.1115 -1.0358,-0.78521 -1.6875,-0.375 -0.95249,0.38586 -1.4281,1.2903 -2.0938,2 -0.0799,0.64767 0.0372,1.3567 0.0312,2.0312 0.21646,0.81142 1.2024,0.4303 1.8125,0.375 0.9788,-0.40937 1.3795,0.62745 0.59375,1.2188 -0.53181,0.67603 -2.2198,0.32293 -2.0625,1.4062 0.54395,0.0636 1.1105,0.0432 1.6562,0 1.0905,-0.29799 2.2614,-1.0673 2.375,-2.2812 0.1436,-1.0582 1.6676,-0.86544 2.5,-1.0938 1.0408,-0.30002 2.2948,-0.37704 2.5312,0.9375 0.70943,0.74499 2.2486,1.584 3.0312,0.5625 0.79451,-0.48523 1.1764,-1.3376 1.125,-2.25 -0.16203,-0.78461 1.2688,-0.81314 1.625,-0.375 0.52141,0.85796 2.151,0.60478 2.9375,0.125 0.8361,-0.61721 1.0176,-1.705 2.2188,-1.7188 1.7823,-0.53352 3.6342,-0.84122 5.375,-1.5 1.4104,-0.3073 -0.2099,-1.1977 -0.5625,-1.7188 -1.0737,-0.53098 -2.0081,1.6419 -3.2188,0.5625 -0.93564,-0.71605 -0.87212,-2.0766 -1.2188,-3.125 -0.23714,-1.3573 -0.17721,-2.9227 -1.1562,-4 -0.67242,-0.71491 -1.586,-0.887 -2.5312,-0.84375 z m -6.8125,9.4688 c 0.12573,-0.003 0.26757,0.0593 0.5,0.1875 0.43841,0.24193 0.75063,0.64294 0.75,0.96875 -4.3e-4,0.21261 -0.0545,0.22697 -0.375,0.375 -0.19719,0.091 -0.4214,0.1885 -0.5,0.1875 -0.18098,-0.002 -0.62438,-0.35688 -0.625,-0.5 -6.5e-4,-0.0594 -0.0581,-0.28649 -0.125,-0.46875 -0.11761,-0.32068 -0.0994,-0.31643 0.0625,-0.53125 0.10347,-0.13744 0.18677,-0.21532 0.3125,-0.21875 z m 6.5312,0.34375 c 0.37229,-0.0244 0.59356,0.0918 0.75,0.375 0.18178,0.32896 0.0582,0.58095 -0.40625,0.78125 -0.20349,0.0878 -0.407,0.15925 -0.4375,0.15625 -0.0306,-0.003 -0.19844,-0.10253 -0.375,-0.21875 -0.27012,-0.17777 -0.3095,-0.26387 -0.3125,-0.46875 -0.003,-0.31541 0.34928,-0.5967 0.78125,-0.625 z m -8.9375,0.0937 c 0.10904,-0.017 0.20831,0.04 0.34375,0.15625 0.17999,0.15456 0.23685,0.27887 0.28125,0.59375 0.0314,0.21884 0.0265,0.50184 0,0.625 -0.0486,0.2261 -0.0532,0.21575 -0.5625,0.21875 -0.64029,0.006 -0.6997,-0.0639 -0.6875,-0.65625 0.008,-0.37682 0.0118,-0.4782 0.21875,-0.6875 0.16044,-0.16228 0.29721,-0.23305 0.40625,-0.25 z m -5.5,1.4375 c 0.19951,0.0469 0.3879,0.19761 0.4375,0.4375 0.0656,0.3175 0.008,0.46223 -0.25,0.59375 -0.2221,0.1131 -0.73401,0.1508 -0.875,0.0625 -0.0457,-0.0286 -0.1399,-0.103 -0.1875,-0.1875 -0.068,-0.12114 -0.0555,-0.1794 0.0312,-0.25 0.0605,-0.0492 0.12539,-0.11985 0.125,-0.15625 -4e-4,-0.0364 0.0673,-0.16316 0.15625,-0.28125 0.14608,-0.1939 0.36299,-0.26563 0.5625,-0.21875 z m 9.25,1.1875 c 0.17794,-10e-4 0.32863,0.0609 0.4375,0.15625 0.18526,0.16231 0.179,0.40039 -0.0312,0.5625 -0.13509,0.1044 -0.87165,0.0948 -1.125,0 -0.11272,-0.0421 -0.15563,-0.0987 -0.15625,-0.21875 -0.002,-0.14091 0.0375,-0.22767 0.28125,-0.34375 0.20425,-0.0976 0.41581,-0.15507 0.59375,-0.15625 z"/>
            <path inkscape:connector-curvature="0" id="path108" d="m 467.86,388.29 c -0.0958,-0.0625 -0.23767,-0.11699 -0.0948,-0.22157 0.17277,-0.30247 0.51785,-0.40716 0.82434,-0.51974 0.54779,-0.23732 1.0207,-0.64036 1.3737,-1.1184 0.05,-0.33298 0.42384,-0.51355 0.42219,-0.86174 0.003,-0.47487 0.0311,-0.9616 -0.0846,-1.426 -0.12837,-0.4257 -0.45147,-0.75199 -0.82649,-0.97395 -0.25667,-0.20149 -0.674,-0.25712 -0.76877,-0.61402 -0.0525,-0.34279 0.25343,-0.60401 0.36053,-0.90935 0.22325,-0.42151 0.41109,-0.86364 0.6509,-1.275 0.25912,-0.2878 0.65892,-0.0156 0.79298,0.26239 0.18915,0.27771 0.35679,0.57593 0.45076,0.89748 0.30225,0.33175 0.57024,0.72087 0.679,1.1618 0.14839,0.31056 0.38316,0.60234 0.36929,0.96609 3e-4,0.4164 0.23509,0.78738 0.22034,1.2063 0.0133,0.56042 0.0131,1.1449 -0.19184,1.6741 -0.14001,0.29344 -0.42058,0.46964 -0.60639,0.73256 -0.31897,0.29554 -0.67037,0.57899 -1.0797,0.73615 -0.28928,0.092 -0.45706,0.42565 -0.81934,0.34466 -0.51458,0.009 -1.0366,0.079 -1.5472,-0.004 0.0323,0.0542 -0.15633,-0.0915 -0.12493,-0.0573 z"/>
            <path inkscape:connector-curvature="0" id="path110" d="m 461.01,388.74 c -0.24268,-0.24958 -0.2952,-0.35543 -0.29788,-0.60032 -0.003,-0.24747 0.0446,-0.34567 0.2822,-0.58569 0.43829,-0.44275 0.65248,-0.45344 1.4091,-0.0705 0.72304,0.36598 0.9675,0.39912 1.0322,0.14002 0.0625,-0.25022 0.47885,-0.47916 0.87435,-0.4808 0.25006,-0.002 0.39157,0.0477 0.59183,0.20368 0.25136,0.19583 0.26349,0.22634 0.26989,0.67935 0.004,0.46299 -0.002,0.48055 -0.29042,0.73591 -0.27723,0.24409 -0.32183,0.25915 -0.66541,0.22476 -0.43718,-0.0439 -0.69954,-0.24407 -0.77073,-0.58844 -0.0516,-0.25001 -0.13942,-0.3097 -0.20523,-0.1397 -0.0209,0.0546 -0.12864,0.12185 -0.23894,0.1496 -0.20352,0.0514 -0.5488,0.26862 -0.79415,0.50006 -0.0927,0.0874 -0.25526,0.12855 -0.51863,0.13122 -0.35563,0.003 -0.40513,-0.0183 -0.67826,-0.29915 z"/>
            <path inkscape:connector-curvature="0" id="path112" d="m 441.19,379.84 c -0.66466,0.007 -1.3805,0.5662 -1.4688,1.2188 0.15206,0.75226 0.77698,1.4895 0.375,2.2812 0.27756,1.0131 -0.76147,1.3974 -1.4688,0.8125 -0.4271,-0.97134 -0.64349,-2.0358 -1.2812,-2.9062 -0.80411,-0.22762 -1.1545,1.0569 -1.7188,1.5 0.27975,0.75505 1.0958,1.4324 1.1875,2.375 0.1952,0.91482 -0.36128,1.9306 -1.1562,2.4062 -0.68584,0.65472 -1.6254,0.42074 -2.4688,0.5625 -1.0242,0.59857 0.75182,0.81755 1.2188,0.84375 1.0477,0.10646 2.1354,-0.0317 2.9062,-0.8125 0.76911,-0.36708 0.70971,-1.6972 1.625,-1.8438 1.5884,-0.0709 3.1626,0.24355 4.75,0.28125 0.84936,0.20336 2.1635,-0.10098 2.75,0.53125 0.002,1.1075 0.94078,1.7905 1.8438,2.2188 0.4987,0.13872 1.0241,-0.47928 1.5312,-0.59375 0.96531,-0.30764 0.67182,-1.502 1.25,-1.9688 1.6504,-0.0893 3.3163,-0.0704 4.9688,-0.0937 0.31463,0.008 0.40734,-0.43988 0.625,-0.625 -0.0363,-0.63881 -0.0593,-1.2726 -0.15625,-1.9062 -0.31819,-0.80653 0.0513,-1.8446 -0.53125,-2.5312 -0.83011,-0.22606 -1.5362,0.53355 -2.375,0.59375 -0.92616,0.41246 -1.7065,1.2677 -1.75,2.3125 -0.54833,0.89658 -1.4277,-0.15958 -1.125,-0.90625 -0.0346,-0.32541 0.0704,-0.70429 -0.0312,-1 -0.50698,-0.60814 -1.3947,-0.4094 -2.0938,-0.5 -1.0184,0.0406 -2.0127,-0.17955 -3.0312,-0.15625 -0.89293,-0.0674 -1.822,0.0777 -2.6875,-0.15625 -1.0317,-0.0293 -0.88959,-1.0382 -1.0625,-1.75 -0.18299,-0.13571 -0.40345,-0.18973 -0.625,-0.1875 z m 2,3.6875 c 0.34308,0.007 0.66656,0.052 1,0.0937 0.43082,0.0709 0.8899,-0.14816 1.3125,0 0.97651,0.16608 1.9536,0.12685 2.9375,0.21875 0.25985,-0.004 0.44579,0.18471 0.625,0.34375 0.002,0.68357 6.6e-4,1.3789 0,2.0625 -0.0299,0.25767 0.0763,0.5982 -0.15625,0.78125 -0.0747,0.0513 -0.1583,0.1072 -0.25,0.125 -0.27065,-0.07 -0.55731,-0.2479 -0.6875,-0.5 -0.0414,-0.35742 0.0179,-0.70404 0.0312,-1.0625 -0.007,-0.0927 0.0404,-0.237 0,-0.3125 -0.21278,-0.15067 -0.45387,-0.249 -0.71875,-0.25 -0.84945,-0.0291 -1.682,-0.0916 -2.5312,-0.125 -0.7069,-0.0446 -1.4333,0.0604 -2.125,-0.125 -0.26845,-0.0976 -0.61789,-0.0641 -0.78125,-0.34375 -0.23417,-0.27227 0.10362,-0.59695 0.34375,-0.71875 0.31827,-0.1447 0.65692,-0.19411 1,-0.1875 z m 11.281,0.25 c 0.15866,-0.002 0.20935,0.05 0.28125,0.34375 0.0459,0.18765 0.0996,0.4172 0.125,0.5 0.0363,0.11811 -0.0218,0.15625 -0.1875,0.21875 -0.494,0.18646 -0.98566,0.16797 -1.1562,-0.0625 -0.0774,-0.10454 0.0129,-0.43451 0.15625,-0.5625 0.28946,-0.25851 0.60992,-0.43691 0.78125,-0.4375 z"/>
          </g>
        </g>
        <path style="color:#000000;font-style:normal;font-variant:normal;font-weight:normal;font-stretch:normal;font-size:medium;line-height:normal;font-family:sans-serif;text-indent:0;text-align:start;text-decoration:none;text-decoration-line:none;text-decoration-style:solid;text-decoration-color:#000000;letter-spacing:normal;word-spacing:normal;text-transform:none;direction:ltr;block-progression:tb;writing-mode:lr-tb;baseline-shift:baseline;text-anchor:start;white-space:normal;clip-rule:nonzero;display:inline;overflow:visible;visibility:visible;opacity:1;isolation:auto;mix-blend-mode:normal;color-interpolation:sRGB;color-interpolation-filters:linearRGB;solid-color:#000000;solid-opacity:1;fill:#c09300;fill-opacity:1;fill-rule:nonzero;stroke:none;stroke-width:1.42731071;stroke-linecap:butt;stroke-linejoin:miter;stroke-miterlimit:4;stroke-dasharray:none;stroke-dashoffset:0;stroke-opacity:1;color-rendering:auto;image-rendering:auto;shape-rendering:auto;text-rendering:auto;enable-background:accumulate" d="m 450.33984,255.59961 -0.57422,0.63477 c -1.79303,1.97852 -6.96075,4.28454 -12.44335,5.92968 -5.4826,1.64515 -11.35302,2.72852 -14.60157,2.72852 -0.81373,0 -1.6282,-0.0828 -2.39453,-0.24414 l -0.79492,-0.16797 -0.0625,0.8125 c 0,0 -2.84885,37.17742 30.07617,62.50195 l 0.19141,0.14844 0.48633,0 0.19336,-0.14844 c 32.92459,-25.32335 30.11914,-62.50195 30.11914,-62.50195 l -0.0625,-0.80469 -0.78907,0.1582 c -0.82094,0.16416 -1.58861,0.2461 -2.40234,0.2461 -3.28746,0 -9.07171,-0.96835 -14.42969,-2.55274 -5.35797,-1.58439 -10.32951,-3.8918 -11.99023,-6.06054 l -0.52149,-0.67969 z" id="path3503"/>
        <path style="color:#000000;font-style:normal;font-variant:normal;font-weight:normal;font-stretch:normal;font-size:medium;line-height:normal;font-family:sans-serif;text-indent:0;text-align:start;text-decoration:none;text-decoration-line:none;text-decoration-style:solid;text-decoration-color:#000000;letter-spacing:normal;word-spacing:normal;text-transform:none;direction:ltr;block-progression:tb;writing-mode:lr-tb;baseline-shift:baseline;text-anchor:start;white-space:normal;clip-rule:nonzero;display:inline;overflow:visible;visibility:visible;opacity:1;isolation:auto;mix-blend-mode:normal;color-interpolation:sRGB;color-interpolation-filters:linearRGB;solid-color:#000000;solid-opacity:1;fill:#ffffff;fill-opacity:1;fill-rule:nonzero;stroke:none;stroke-width:1.42731071;stroke-linecap:butt;stroke-linejoin:miter;stroke-miterlimit:4;stroke-dasharray:none;stroke-dashoffset:0;stroke-opacity:1;color-rendering:auto;image-rendering:auto;shape-rendering:auto;text-rendering:auto;enable-background:accumulate" d="m 450.26564,257.64648 c 2.35289,2.55089 7.05548,4.54666 12.18165,6.0625 5.47175,1.61804 11.27434,2.60938 14.83398,2.60938 0.61758,0 1.21839,-0.0998 1.82227,-0.18359 0.12949,2.08025 1.77784,36.04009 -29.12305,60.16211 -30.90687,-24.12685 -29.21346,-58.09435 -29.08203,-60.16407 0.60415,0.0839 1.20601,0.18555 1.82226,0.18555 3.55546,0 9.42862,-1.11181 15.01172,-2.78711 5.23398,-1.57054 10.05398,-3.56328 12.5332,-5.88477 z" id="path114"/>
        <path style="color:#000000;font-style:normal;font-variant:normal;font-weight:normal;font-stretch:normal;font-size:medium;line-height:normal;font-family:sans-serif;text-indent:0;text-align:start;text-decoration:none;text-decoration-line:none;text-decoration-style:solid;text-decoration-color:#000000;letter-spacing:normal;word-spacing:normal;text-transform:none;direction:ltr;block-progression:tb;writing-mode:lr-tb;baseline-shift:baseline;text-anchor:start;white-space:normal;clip-rule:nonzero;display:inline;overflow:visible;visibility:visible;opacity:1;isolation:auto;mix-blend-mode:normal;color-interpolation:sRGB;color-interpolation-filters:linearRGB;solid-color:#000000;solid-opacity:1;fill:#c09300;fill-opacity:1;fill-rule:nonzero;stroke:none;stroke-width:1.13631403;stroke-linecap:butt;stroke-linejoin:miter;stroke-miterlimit:4;stroke-dasharray:none;stroke-dashoffset:0;stroke-opacity:1;color-rendering:auto;image-rendering:auto;shape-rendering:auto;text-rendering:auto;enable-background:accumulate" d="m 450.21875,259.37891 -0.36523,0.27734 c -2.78528,2.11044 -7.87366,4.10928 -12.99024,5.53711 -5.11658,1.42783 -10.29974,2.30469 -13.24219,2.30469 -0.24005,0 -0.48749,-0.0287 -0.74609,-0.0762 l -0.66406,-0.12305 -0.008,0.67578 c -0.0144,1.41449 0.0597,2.86784 0.14649,4.18555 0.32571,4.94191 1.19104,9.89742 2.50586,14.66601 4.13899,15.00701 12.61998,27.77582 24.76562,37.44922 l 0.35547,0.28125 0.35352,-0.28125 c 12.15563,-9.68138 20.647,-22.46253 24.79492,-37.48047 1.31692,-4.76747 2.18484,-9.72072 2.51367,-14.66211 0.0857,-1.29082 0.15831,-2.71219 0.14844,-4.09765 l -0.5332,0.53515 -0.0332,-1.09765 -0.0371,0 -0.53711,0 0,0.0176 c -0.0915,0.002 -0.18145,0.008 -0.27343,0.008 -3.00559,0 -8.14952,-0.78672 -13.18164,-2.16797 -5.03213,-1.38125 -9.98189,-3.38321 -12.62305,-5.65235 l -0.34961,-0.29882 z m -0.0625,1.39257 c 2.95116,2.3902 7.78487,4.29573 12.73437,5.6543 5.11501,1.404 10.28251,2.20899 13.48243,2.20899 0.0865,0 0.17164,-0.006 0.25781,-0.008 -0.0106,1.15604 -0.0524,2.33696 -0.125,3.42969 -0.32337,4.85922 -1.17929,9.74117 -2.47656,14.4375 -4.04245,14.63608 -12.28302,27.06199 -24.05469,36.5625 -11.76096,-9.49234 -19.98994,-21.90675 -24.02344,-36.53125 -1.29518,-4.6974 -2.14846,-9.57977 -2.46875,-14.43945 -0.0729,-1.10641 -0.11234,-2.305 -0.12109,-3.47656 0.0885,0.006 0.16894,0.0254 0.25976,0.0254 3.16256,0 8.35854,-0.89731 13.54883,-2.34571 5.02026,-1.40095 9.91977,-3.31432 12.98633,-5.51758 z" id="path116" inkscape:connector-curvature="0"/>
        <path style="fill:#c09300;stroke:none" inkscape:connector-curvature="0" id="path118" d="m 439.38,265.03 c -5.8724,1.8448 -12.229,3.0312 -15.75,3.0312 -0.28633,0 -0.56336,-0.0423 -0.84375,-0.0937 -0.0142,1.3907 0.0699,2.8451 0.15625,4.1562 0.32298,4.9006 1.1638,9.7995 2.4688,14.531 2.765,10.025 7.5063,19.032 13.969,26.781 l 0,-48.406 z"/>
        <path style="fill:#c09300;stroke:none" inkscape:connector-curvature="0" id="path120" d="m 460,264.94 0,49.25 c 6.794,-7.9213 11.733,-17.206 14.594,-27.562 1.307,-4.7317 2.1427,-9.6313 2.4688,-14.531 0.0853,-1.2844 0.16596,-2.6999 0.15625,-4.0625 -0.28095,0.0176 -0.55937,0.0312 -0.84375,0.0312 -3.7302,0 -10.42,-1.1704 -16.375,-3.125 z"/>
        <g style="stroke-width:1.5764699" id="g122">
          <path style="color:#000000;font-style:normal;font-variant:normal;font-weight:normal;font-stretch:normal;font-size:medium;line-height:normal;font-family:sans-serif;text-indent:0;text-align:start;text-decoration:none;text-decoration-line:none;text-decoration-style:solid;text-decoration-color:#000000;letter-spacing:normal;word-spacing:normal;text-transform:none;direction:ltr;block-progression:tb;writing-mode:lr-tb;baseline-shift:baseline;text-anchor:start;white-space:normal;clip-rule:nonzero;display:inline;overflow:visible;visibility:visible;opacity:1;isolation:auto;mix-blend-mode:normal;color-interpolation:sRGB;color-interpolation-filters:linearRGB;solid-color:#000000;solid-opacity:1;fill:#c09300;fill-opacity:1;fill-rule:nonzero;stroke:none;stroke-width:1.51132131;stroke-linecap:butt;stroke-linejoin:miter;stroke-miterlimit:4;stroke-dasharray:none;stroke-dashoffset:0;stroke-opacity:1;color-rendering:auto;image-rendering:auto;shape-rendering:auto;text-rendering:auto;enable-background:accumulate" d="m 446.58594,204.85352 c -1.39564,-0.0686 -2.31577,0.59307 -2.62696,1.31445 -0.084,0.19474 -0.0135,0.20132 -0.041,0.37695 -1.96528,-0.46445 -3.93931,-0.85584 -5.67774,-0.93164 -1.98901,-0.0867 -3.725,0.10539 -4.9707,0.93555 -0.70224,0.46817 -1.10653,1.22457 -1.41601,2.05078 -0.30949,0.82621 -0.50104,1.74485 -0.5879,2.59766 -0.0869,0.8528 -0.0871,1.61537 0.0899,2.24804 0.0885,0.31634 0.20382,0.65986 0.61523,0.90235 0.20571,0.12124 0.491,0.16861 0.72461,0.12304 0.23361,-0.0456 0.41163,-0.15274 0.5625,-0.27343 1.49529,-1.19624 2.64832,-1.19915 3.83008,-0.65821 1.18176,0.54095 2.35181,1.77088 3.31055,3.16211 l 0,0.002 c 0.68777,0.99342 1.1574,3.33456 1.0332,6.42969 -0.1242,3.09513 -0.77922,6.95271 -2.03711,11.11328 l 0,0.002 c -2.5966,8.62993 -9.81836,17.45898 -9.81836,17.45898 l -1.01758,1.23633 1.60157,0 c 2.20445,0 4.63552,-0.93229 6.56836,-1.83594 1.05065,-0.49121 1.22342,-0.63741 1.82812,-0.98437 l -1.30859,5.42773 1.43164,-0.68164 c 3.76845,-1.79624 6.41104,-4.09975 7.13867,-4.75 l 4.12891,4.33008 0.53711,-0.70899 c 1.10344,-1.46047 2.98575,-3.1852 3.46874,-3.63476 0.72837,0.70456 3.34615,2.99802 7.74024,3.60742 l 0.0273,0.0996 0.51953,0.0293 0.0254,0.002 c 0.20684,0.0122 0.49551,-0.0757 0.66993,-0.24414 0.17442,-0.16844 0.23505,-0.34955 0.26562,-0.48828 0.0611,-0.27747 0.03,-0.47019 -0.004,-0.68164 -0.063,-0.39312 -0.20045,-0.82555 -0.34766,-1.25977 1.04139,0.40057 2.17916,0.69217 3.30273,0.89063 1.93444,0.34167 3.63672,0.45117 3.63672,0.45117 l 0.35352,-1.44531 c -0.72092,-0.31829 -1.6836,-1.35355 -2.57422,-2.94727 -0.89062,-1.59371 -1.73678,-3.71483 -2.44531,-6.11523 -1.41707,-4.80081 -2.28875,-10.73151 -2.0586,-15.93555 l 0,-0.002 c 0.43597,-10.76439 -1.49409,-15.16953 -3.3164,-16.99219 -1.20757,-1.20757 -3.36731,-2.11409 -5.81055,-2.85156 -2.44324,-0.73748 -5.14723,-1.24692 -7.34766,-1.36914 l -0.002,0 -0.002,0 z" id="path3497"/>
          <path style="color:#000000;font-style:normal;font-variant:normal;font-weight:normal;font-stretch:normal;font-size:medium;line-height:normal;font-family:sans-serif;text-indent:0;text-align:start;text-decoration:none;text-decoration-line:none;text-decoration-style:solid;text-decoration-color:#000000;letter-spacing:normal;word-spacing:normal;text-transform:none;direction:ltr;block-progression:tb;writing-mode:lr-tb;baseline-shift:baseline;text-anchor:start;white-space:normal;clip-rule:nonzero;display:inline;overflow:visible;visibility:visible;opacity:1;isolation:auto;mix-blend-mode:normal;color-interpolation:sRGB;color-interpolation-filters:linearRGB;solid-color:#000000;solid-opacity:1;fill:#ffffff;fill-opacity:1;fill-rule:nonzero;stroke:none;stroke-width:1.51132131;stroke-linecap:butt;stroke-linejoin:miter;stroke-miterlimit:4;stroke-dasharray:none;stroke-dashoffset:0;stroke-opacity:1;color-rendering:auto;image-rendering:auto;shape-rendering:auto;text-rendering:auto;enable-background:accumulate" d="m 446.50784,206.36328 c 2.03378,0.11297 4.66186,0.60325 6.99219,1.30664 2.33033,0.7034 4.3858,1.68072 5.17773,2.47266 1.31509,1.31534 3.30479,5.29966 2.87696,15.86328 -0.23917,5.41999 0.65482,11.46489 2.11914,16.42578 0.73233,2.48102 1.60501,4.68949 2.57422,6.42383 0.40186,0.71911 0.82825,1.30654 1.26562,1.85351 -0.4951,-0.0626 -0.51589,-0.034 -1.09765,-0.13671 -1.83934,-0.32488 -3.89623,-0.99485 -4.4668,-1.57813 l -1.23438,0.83008 c 0,0 0.38427,0.88405 0.67969,1.74219 0.077,0.22368 0.10695,0.37662 0.16211,0.57421 -4.28428,-0.73124 -7.12695,-3.57031 -7.12695,-3.57031 l -0.50977,-0.53906 -0.54883,0.5 c 0,0 -2.03234,1.97842 -3.48632,3.66211 l -3.97071,-4.16406 -0.54687,0.50781 c 0,0 -2.60668,2.19178 -5.84961,4.04687 l 1.3418,-5.5625 -1.57618,0.99805 c 0,0 -1.35434,0.85805 -3.19531,1.71875 -1.31045,0.61267 -2.81517,1.09662 -4.23828,1.39063 1.55294,-1.97016 6.63341,-8.60581 8.99219,-16.44532 1.29059,-4.26872 1.96894,-8.23381 2.09961,-11.49023 0.13067,-3.25642 -0.22416,-5.79453 -1.30079,-7.34961 l 0.002,0 c -1.04066,-1.51011 -2.3238,-2.94444 -3.92578,-3.67773 -1.46066,-0.66861 -3.21802,-0.495 -4.91016,0.63086 -0.0555,-0.32797 -0.10123,-0.81573 -0.0371,-1.44532 0.0749,-0.73508 0.24761,-1.55212 0.49805,-2.2207 0.25044,-0.66858 0.60108,-1.16504 0.83984,-1.32422 0.7547,-0.50294 2.23273,-0.76354 4.06641,-0.68359 1.83368,0.0799 4.00854,0.46233 6.1875,1.02148 l 1.16992,0.30078 -0.24219,-1.18359 c 0,0 -0.0339,-0.28627 0.0566,-0.4961 0.0903,-0.20938 0.17146,-0.45002 1.16211,-0.40234 z" id="path124"/>
          <path style="fill:none;stroke-width:1.5764699" inkscape:connector-curvature="0" id="path126" d="m 446.12,227.57 c 0,0 -2.2349,16.428 -6.43,21.094"/>
          <path style="fill:none;stroke-width:1.5764699" inkscape:connector-curvature="0" id="path128" d="m 449.65,227.14 c 0,0 -0.86252,16.623 -3.7639,21.956"/>
          <path style="fill:none;stroke-width:1.5764699" inkscape:connector-curvature="0" id="path130" d="m 452.78,227.81 c 0,0 0,18.192 1.0978,21.289"/>
          <path style="fill:none;stroke-width:1.5764699" inkscape:connector-curvature="0" id="path132" d="m 456.74,228.71 c 0,0 0.90178,15.291 4.6657,20.819"/>
          <path style="fill:#c09300;stroke-width:0.43953526" inkscape:connector-curvature="0" id="path134" d="m 442.08,219.61 c -0.19598,-1.4508 -0.54888,-2.5878 -1.0586,-3.3328 -1.9996,-2.9013 -4.9009,-5.3321 -8.2335,-2.6661 0,0 1.137,-3.5287 3.5678,-3.6463 1.882,-0.11767 6.1556,1.4115 9.9196,7.8415 0,0 -2.7837,-0.62739 -3.4502,-0.0393 -1.2546,1.0979 -0.74495,1.8428 -0.74495,1.8428 z"/>
          <path style="fill:#c09300;stroke-width:0.43953526" inkscape:connector-curvature="0" id="path136" d="m 432.44,209.26 c 0.27439,-0.90178 0.7057,-1.7251 1.2546,-2.078 1.9996,-1.333 6.43,-0.90177 10.86,0.23524 0,0 -0.39205,-1.9212 1.9996,-1.8036 4.2344,0.23523 10.665,1.9996 12.664,3.9992 0.47046,0.50973 1.0194,1.2547 1.4899,2.3916 l -0.0784,0 c -0.98015,-1.3721 -3.764,-1.2937 -4.4308,-1.2154 -1.0586,0.11756 -1.7251,0.0784 -3.1365,0.4312 -0.66655,0.15693 -1.686,0.3529 -2.2349,0.78422 -0.43131,0.3529 -0.7841,1.6467 -1.4506,1.6467 -1.0586,0 -0.98019,-0.27449 -1.2547,-0.58814 -0.35279,-0.43131 -0.54888,-1.0586 -0.90178,-1.0194 -1.0978,0.19608 -2.8621,-0.66644 -5.0969,-2.4308 -2.2344,-1.7644 -3.0971,-2.1956 -5.9984,-1.9996 -2.8622,0.23524 -3.7639,1.8427 -3.7639,1.8427 l 0.0784,-0.19598 z"/>
          <circle style="stroke:none" id="circle138" r="1.176" cy="210.672" cx="448.82401"/>
        </g>
      </g>
    </g>
  </g>

	<metadata>
		<rdf:RDF xmlns:rdf="http://www.w3.org/1999/02/22-rdf-syntax-ns#" xmlns:rdfs="http://www.w3.org/2000/01/rdf-schema#" xmlns:dc="http://purl.org/dc/elements/1.1/">
			<rdf:Description about="https://iconscout.com/legal#licenses" dc:title="egypt_egyptian_national_country_flag" dc:description="egypt_egyptian_national_country_flag" dc:publisher="Iconscout" dc:date="2017-05-26" dc:format="image/svg+xml" dc:language="en">
				<dc:creator>
					<rdf:Bag>
						<rdf:li>Vignesh Oviyan</rdf:li>
					</rdf:Bag>
				</dc:creator>
			</rdf:Description>
		</rdf:RDF>
    </metadata></svg>
